:version 1.10
:name ASF
:units
  mass 1
  length 1
  angle deg
:documentation
  ASF file generated by Kaydara
:root
  axis xyz
  order  tx ty tz rx ry rz
  position 0 0 0
  orientation 0 0 0
:bonedata
  begin
    id 1
    name LeftUpLegDummy
    direction 1 -2.30186e-007 -8.31532e-007
    length 2.93387
    axis 0 0 0 xyz
  end
  begin
    id 2
    name LeftUpLeg
    direction -1.82929e-007 -1 -1.48925e-009
    length 17.3336
    axis -3.48766 0.00143442 -0.000521554 xyz
    dof rx ry rz
  end
  begin
    id 3
    name LeftLeg
    direction -1.82929e-007 -1 -5.23717e-011
    length 14.9995
    axis 3.68178 -0.00654042 -0.000282425 xyz
    dof rx ry rz
  end
  begin
    id 4
    name LeftFoot
    direction 8.31532e-007 -4.54534e-011 1
    length 6.74421
    axis 1.87234e-006 4.66016e-005 -5.96866e-006 xyz
    dof rx ry rz
  end
  begin
    id 5
    name LeftToes
    direction 0.00818058 -0.00485161 0.999955
    length 3.85048
    axis 1.06247e-005 4.65869e-005 -5.96999e-006 xyz
    dof rx ry rz
  end
  begin
    id 6
    name SpineDummy
    direction -5.8607e-008 0.943407 -0.331637
    length 5.93572
    axis 0 0 0 xyz
  end
  begin
    id 7
    name Spine
    direction -1.04988e-007 0.999988 0.00495137
    length 10.1015
    axis -0.001389 0.000121417 6.61666e-006 xyz
    dof rx ry rz
  end
  begin
    id 8
    name Spine1
    direction 0 0 0
    length 0
    axis -0.001389 0.00012144 6.56766e-006 xyz
    dof rx ry rz
  end
  begin
    id 9
    name RightShoulderDummy
    direction -0.98348 0.17941 -0.0240696
    length 3.59882
    axis -0.001389 0.00012144 6.56766e-006 xyz
  end
  begin
    id 10
    name RightShoulder
    direction -0.978693 0.204882 0.0135597
    length 2.70001
    axis 0.215806 0.000203631 -0.00679732 xyz
    dof rx ry rz
  end
  begin
    id 11
    name RightArm
    direction -1 3.85509e-006 8.31394e-007
    length 10.2459
    axis -23.2009 -0.134239 -0.964098 xyz
    dof rx ry rz
  end
  begin
    id 12
    name RightForeArm
    direction -1 3.85569e-006 8.3129e-007
    length 8.16799
    axis -9.92322 0.0658061 0.17887 xyz
    dof rx ry rz
  end
  begin
    id 13
    name RightHand
    direction -0.992843 -0.0414604 0.112003
    length 5.28593
    axis -0.00960638 0.00330669 -0.185225 xyz
    dof rx ry rz
  end
  begin
    id 14
    name LeftShoulder1Dummy
    direction 0.983523 0.179172 -0.0240748
    length 3.59866
    axis -0.001389 0.00012144 6.56766e-006 xyz
  end
  begin
    id 15
    name LeftShoulder1
    direction 0.978627 0.205195 0.0135605
    length 2.70019
    axis -0.001389 0.00012144 6.57583e-006 xyz
    dof rx ry rz
  end
  begin
    id 16
    name LeftArm
    direction 1 3.51895e-006 -8.60188e-007
    length 10.2459
    axis -23.1894 0.134785 0.967513 xyz
    dof rx ry rz
  end
  begin
    id 17
    name LeftForeArm
    direction 1 3.51921e-006 -7.32029e-007
    length 8.16799
    axis -9.91835 -0.0656957 -0.177789 xyz
    dof rx ry rz
  end
  begin
    id 18
    name LeftHand
    direction 0.992938 -0.0411636 0.11126
    length 5.32135
    axis -0.00960237 -0.00340661 0.185177 xyz
    dof rx ry rz
  end
  begin
    id 19
    name HEadDummy
    direction 1.01974e-006 0.999861 -0.016675
    length 2.99946
    axis -0.001389 0.00012144 6.56766e-006 xyz
  end
  begin
    id 20
    name HEad
    direction -0.0222689 0.980941 0.193023
    length 5.12695
    axis -0.001389 0.00012144 6.56766e-006 xyz
    dof rx ry rz
  end
  begin
    id 21
    name RightUpLegDummy
    direction -1 2.30186e-007 8.31532e-007
    length 2.93387
    axis 0 0 0 xyz
  end
  begin
    id 22
    name RightUpLeg
    direction -1.82966e-007 -1 1.56832e-007
    length 17.3336
    axis -3.4909 -0.000906625 0.00028951 xyz
    dof rx ry rz
  end
  begin
    id 23
    name RightLeg
    direction -1.82786e-007 -1 -1.80317e-007
    length 14.9995
    axis 3.68513 0.0193739 -0.131021 xyz
    dof rx ry rz
  end
  begin
    id 24
    name RightFoot
    direction 8.31721e-007 -4.63324e-011 1
    length 6.74421
    axis 4.81691e-005 -0.120479 -0.188785 xyz
    dof rx ry rz
  end
  begin
    id 25
    name RightToes
    direction 0.00124746 -0.014064 0.9999
    length 3.85082
    axis 0.000481921 0.542163 -0.142575 xyz
    dof rx ry rz
  end
:hierarchy
  begin
    root LeftUpLegDummy SpineDummy RightUpLegDummy
    LeftUpLegDummy LeftUpLeg
    LeftUpLeg LeftLeg
    LeftLeg LeftFoot
    LeftFoot LeftToes
    SpineDummy Spine
    Spine Spine1
    Spine1 RightShoulderDummy LeftShoulder1Dummy HEadDummy
    RightShoulderDummy RightShoulder
    RightShoulder RightArm
    RightArm RightForeArm
    RightForeArm RightHand
    LeftShoulder1Dummy LeftShoulder1
    LeftShoulder1 LeftArm
    LeftArm LeftForeArm
    LeftForeArm LeftHand
    HEadDummy HEad
    RightUpLegDummy RightUpLeg
    RightUpLeg RightLeg
    RightLeg RightFoot
    RightFoot RightToes
  end

:SAMPLES-PER-SECOND 30
:FULLY-SPECIFIED
:DEGREES
347
root  -7.96515 34.0763 -1.0527 3.44409 47.0348 -3.0143
LeftUpLeg  -16.4586 8.81749 9.31243
LeftLeg  14.0699 7.14542 1.30465
LeftFoot  10.2704 -0.114373 1.27264
LeftToes  -25.0346 6.91067e-007 1.07128e-007
Spine  2.20499 -0.283899 3.09599
Spine1  4.14282 -0.76018 6.27273
RightShoulder  0.0245991 7.58666 3.49992
RightArm  25.9531 -2.35266 78.3812
RightForeArm  41.5741 58.757 16.9619
RightHand  0.0113836 -5.22607 0.120421
LeftShoulder1  0.0652523 -7.4738 -7.0532
LeftArm  28.0514 1.32968 -79.5211
LeftForeArm  10.0751 -39.2501 -8.2778
LeftHand  -1.74557 12.3587 -16.3794
HEad  -6.06538 14.6422 -11.2932
RightUpLeg  -8.03116 -12.3913 5.07599
RightLeg  9.04859 2.39666 0.226472
RightFoot  -0.202561 0.00343668 -0.00530619
RightToes  -23.3032 -0.100628 -0.202836
348
root  -8.12604 34.0567 -1.02607 2.87166 47.9721 -3.12091
LeftUpLeg  -16.8674 8.6621 9.47591
LeftLeg  14.957 6.45271 1.28181
LeftFoot  10.2337 -0.102746 1.14739
LeftToes  -24.5002 6.91067e-007 1.07128e-007
Spine  2.59909 -0.60491 3.20794
Spine1  4.93855 -1.41989 6.47517
RightShoulder  0.0213724 8.89431 2.53231
RightArm  27.6986 -0.838304 77.0567
RightForeArm  41.7135 61.3336 18.901
RightHand  -0.0471569 -5.69136 1.31716
LeftShoulder1  0.0620344 -8.17789 -5.75044
LeftArm  30.0591 0.333026 -78.8461
LeftForeArm  16.4612 -39.9279 -8.48694
LeftHand  -2.08099 15.1438 -15.9231
HEad  -5.66927 20.335 -12.8941
RightUpLeg  -7.86432 -13.2458 5.29278
RightLeg  9.38825 2.29544 0.230689
RightFoot  -0.442213 0.00355087 -0.0142959
RightToes  -23.109 -0.0994596 -0.201337
349
root  -8.28115 34.0639 -1.01719 2.82359 48.3204 -2.90563
LeftUpLeg  -17.1967 8.99781 9.35112
LeftLeg  15.3311 6.02184 1.23726
LeftFoot  10.455 -0.100421 1.09756
LeftToes  -23.2895 6.91067e-007 1.07128e-007
Spine  2.77395 -0.50726 3.24811
Spine1  5.3188 -1.22444 6.54649
RightShoulder  0.0174096 9.53002 1.43609
RightArm  28.6634 -0.0550952 75.8442
RightForeArm  40.5486 63.4197 20.744
RightHand  -0.150456 -6.16 3.16225
LeftShoulder1  0.0541726 -8.01891 -4.6296
LeftArm  31.004 -0.461039 -79.443
LeftForeArm  20.5679 -39.4086 -8.33163
LeftHand  -1.9603 17.4594 -13.0801
HEad  -5.15629 24.9241 -13.6019
RightUpLeg  -7.81642 -13.4734 5.34243
RightLeg  9.32393 2.11895 0.210662
RightFoot  -0.381522 0.00294283 -0.0102704
RightToes  -22.6376 -0.0987772 -0.197684
350
root  -8.42228 34.0873 -1.01212 3.12728 48.1418 -2.55326
LeftUpLeg  -17.6301 10.298 8.84794
LeftLeg  15.6329 6.63279 1.3987
LeftFoot  11.0224 -0.123401 1.27888
LeftToes  -23.2167 6.91067e-007 1.07128e-007
Spine  2.8391 -0.162512 3.16895
Spine1  5.47787 -0.543973 6.4157
RightShoulder  0.013278 9.85395 0.412907
RightArm  29.1711 0.266048 75.4685
RightForeArm  36.9002 65.0125 22.3619
RightHand  -0.206916 -6.43649 4.04455
LeftShoulder1  0.0503861 -7.68878 -4.36528
LeftArm  30.4242 -0.952331 -79.5832
LeftForeArm  21.4564 -39.312 -8.30288
LeftHand  -1.9504 20.5991 -11.069
HEad  -5.32377 28.1337 -13.965
RightUpLeg  -7.71986 -12.9357 5.33617
RightLeg  8.60846 1.73661 0.151051
RightFoot  0.118987 0.00174486 0.00457856
RightToes  -22.5088 -0.0980778 -0.195414
351
root  -8.54219 34.1214 -1.01666 3.76924 47.8243 -1.94812
LeftUpLeg  -18.02 11.9649 7.88805
LeftLeg  15.514 8.35129 1.74106
LeftFoot  12.017 -0.185299 1.76034
LeftToes  -23.8629 6.91067e-007 1.07128e-007
Spine  2.82754 0.324763 2.90962
Spine1  5.47199 0.416491 5.95527
RightShoulder  0.00975989 9.79764 -0.294878
RightArm  29.8947 0.102593 75.8345
RightForeArm  38.544 66.9319 24.616
RightHand  -0.139662 -6.40636 2.86224
LeftShoulder1  0.0515743 -7.44872 -4.91872
LeftArm  30.0182 -1.32883 -78.5966
LeftForeArm  24.9011 -39.3884 -8.3258
LeftHand  -1.93413 21.9837 -10.3006
HEad  -5.73078 30.2669 -14.1017
RightUpLeg  -7.85117 -12.6864 5.15035
RightLeg  8.10481 1.80612 0.141059
RightFoot  0.551571 0.000952035 0.0146641
RightToes  -22.2133 -0.0973778 -0.193718
352
root  -8.65428 34.153 -1.01897 4.53079 47.923 -1.29499
LeftUpLeg  -18.3715 13.2905 6.71747
LeftLeg  14.8341 10.4045 2.03733
LeftFoot  13.0555 -0.273463 2.38952
LeftToes  -24.1016 6.91067e-007 1.07128e-007
Spine  2.83752 0.718525 2.63146
Spine1  5.50013 1.19574 5.44887
RightShoulder  0.00708941 9.78997 -0.943374
RightArm  30.0565 -0.0877497 76.3459
RightForeArm  43.447 69.688 28.6584
RightHand  -0.126425 -6.87368 2.47253
LeftShoulder1  0.0539116 -7.07797 -5.26742
LeftArm  28.3231 -2.37964 -78.6073
LeftForeArm  27.9819 -37.5469 -7.78773
LeftHand  -2.01337 20.6817 -11.3677
HEad  -6.328 32.4296 -14.5148
RightUpLeg  -8.06211 -12.5406 4.94738
RightLeg  7.60756 1.51934 0.105617
RightFoot  0.91118 0.00060668 0.0191921
RightToes  -22.0043 -0.0966933 -0.19244
353
root  -8.76008 34.1736 -1.02706 5.2779 48.6642 -0.731278
LeftUpLeg  -18.7691 14.3567 5.38733
LeftLeg  13.7515 12.3621 2.17568
LeftFoot  13.7009 -0.35921 2.98936
LeftToes  -22.6394 6.91067e-007 1.07128e-007
Spine  2.88624 0.854391 2.40922
Spine1  5.60104 1.4711 5.02577
RightShoulder  0.0061549 9.70112 -1.31055
RightArm  29.8884 0.14386 76.5431
RightForeArm  47.702 72.9038 35.2905
RightHand  -0.171896 -7.37576 3.03376
LeftShoulder1  0.0537185 -7.08746 -4.96775
LeftArm  23.6101 -3.42471 -79.8223
LeftForeArm  26.0422 -33.8837 -6.79631
LeftHand  -1.60429 16.7392 -11.2377
HEad  -7.26044 35.3119 -15.549
RightUpLeg  -8.35237 -12.6899 4.80218
RightLeg  7.1946 0.927934 0.0583146
RightFoot  1.14467 0.000998472 0.0135276
RightToes  -21.8364 -0.0960406 -0.191421
354
root  -8.87723 34.1716 -1.03201 5.60594 49.8054 -0.600439
LeftUpLeg  -19.4639 16.1058 4.06572
LeftLeg  13.0867 13.8329 2.26638
LeftFoot  14.0308 -0.422524 3.43253
LeftToes  -21.4342 6.91067e-007 1.07128e-007
Spine  3.00077 0.761648 2.3594
Spine1  5.8092 1.26627 4.95025
RightShoulder  0.00619297 9.18707 -1.7783
RightArm  30.9699 1.06015 76.8687
RightForeArm  61.9516 76.3422 47.0626
RightHand  -0.0582182 -6.44987 1.40179
LeftShoulder1  0.0532078 -7.4239 -5.33901
LeftArm  21.0803 -4.35125 -80.3285
LeftForeArm  22.7736 -30.854 -6.04109
LeftHand  -1.12714 16.167 -8.29018
HEad  -8.27596 38.5983 -17.0645
RightUpLeg  -8.70042 -13.0983 4.94707
RightLeg  7.1053 0.245448 0.0160569
RightFoot  1.19878 0.00204546 -0.00119367
RightToes  -21.6338 -0.0954359 -0.190432
355
root  -8.98529 34.1723 -1.03998 5.87685 51.2642 -0.554618
LeftUpLeg  -20.0921 17.7377 2.68486
LeftLeg  12.0726 14.6302 2.13228
LeftFoot  14.21 -0.458927 3.68061
LeftToes  -19.6074 6.91067e-007 1.07128e-007
Spine  3.10007 0.597053 2.34444
Spine1  6.00984 0.940379 4.90966
RightShoulder  0.00669467 8.55739 -2.1921
RightArm  31.9314 2.35448 77.6127
RightForeArm  83.4681 78.8965 65.1625
RightHand  -0.0378068 -6.22665 1.06396
LeftShoulder1  0.0563415 -7.1672 -4.71569
LeftArm  17.7629 -5.79198 -82.5307
LeftForeArm  18.7819 -25.9712 -4.92032
LeftHand  -0.551875 12.6763 -5.33249
HEad  -8.7523 41.7997 -18.3052
RightUpLeg  -9.06845 -14.0181 5.1482
RightLeg  7.06694 -0.211422 -0.0111076
RightFoot  1.20132 0.00277975 -0.0100808
RightToes  -21.6062 -0.0948953 -0.189396
